# xmcd
#
# Track frame offsets:
#	150
#	8352
#	26502
#	41885
#	65995
#	84511
#	97607
#	109630
#	123090
#	134598
#	147478
#	161714
#
# Disc length: 2398 seconds
#
# Revision: 0
# Processed by: cddbd v1.4PL0 Copyright (c) Steve Scherf et al.
# Submitted via: EasyCDDAExtractor 4.6.9.1
#
DISCID=9a095c0c
DTITLE=Steep Canyon Rangers - Mr. Taylor's New Home
DYEAR=2002
DGENRE=Bluegrass
TTITLE0=Carolina Home
TTITLE1=Hibriten Mountain
TTITLE2=Five More Days
TTITLE3=Knob Creek
TTITLE4=Mr. Taylor's New Home
TTITLE5=Money Out Of Sand
TTITLE6=Norma Jean
TTITLE7=Road To Knoxville
TTITLE8=Black River
TTITLE9=Don't Let My Heart Be Lonesome
TTITLE10=Good Old Country Baptizing
TTITLE11=Traveling Kind
EXTD=
EXTT0=
EXTT1=
EXTT2=
EXTT3=
EXTT4=
EXTT5=
EXTT6=
EXTT7=
EXTT8=
EXTT9=
EXTT10=
EXTT11=
PLAYORDER=
